<svg xmlns="http://www.w3.org/2000/svg" width="392" height="76" viewBox="0 0 392 76" role="img" aria-labelledby="title desc">
  <title id="title">Tokenxiety</title>
  <desc id="desc">A warm editorial wordmark with an hourglass token mark.</desc>
  <defs>
    <linearGradient id="gold" x1="0" y1="0" x2="1" y2="1">
      <stop offset="0" stop-color="#FFDF88"/>
      <stop offset="1" stop-color="#F0B44C"/>
    </linearGradient>
    <filter id="soft" x="-10%" y="-20%" width="120%" height="140%">
      <feDropShadow dx="0" dy="7" stdDeviation="7" flood-color="#000" flood-opacity=".35"/>
    </filter>
  </defs>
  <g filter="url(#soft)">
    <path fill="url(#gold)" d="M29 10h32a5 5 0 0 1 0 10h-5c-2 10-7 16-15 18 8 2 13 8 15 18h5a5 5 0 0 1 0 10H29a5 5 0 0 1 0-10h5c2-10 7-16 15-18-8-2-13-8-15-18h-5a5 5 0 0 1 0-10Zm14 10c2 8 6 12 11 12s9-4 11-12H43Zm0 36h22c-2-8-6-12-11-12s-9 4-11 12Z"/>
    <circle cx="55" cy="38" r="5" fill="#1B1307" opacity=".78"/>
  </g>
  <text x="86" y="46" fill="#F8F1DF" font-family="Iowan Old Style, Palatino Linotype, Georgia, serif" font-size="39" font-weight="700" letter-spacing="-1.5">Tokenxiety</text>
  <path d="M87 56h158" stroke="url(#gold)" stroke-width="3" stroke-linecap="round" opacity=".9"/>
  <text x="257" y="58" fill="#A99F8B" font-family="Avenir Next, Trebuchet MS, sans-serif" font-size="11" font-weight="800" letter-spacing="2.8">QUOTA TAB</text>
</svg>
